<svg width="29" height="29" viewBox="0 0 29 29" fill="none" xmlns="http://www.w3.org/2000/svg">
<path fill-rule="evenodd" clip-rule="evenodd" d="M27.3721 0.0665248C27.99 0.267786 28.5169 0.729978 28.8129 1.33048L29 1.70987V14.5059V27.3018L28.842 27.6387C28.6218 28.1084 28.158 28.5795 27.6883 28.8106C27.3284 28.9877 27.2635 29 26.6871 29C26.1162 29 26.0417 28.9863 25.6781 28.8141C25.1787 28.5776 24.7943 28.1934 24.5577 27.6942C24.3752 27.3091 24.3714 27.2837 24.3532 26.321L24.3347 25.3402H22.7567H21.1788V25.7104C21.1788 26.6801 20.5571 27.3432 19.652 27.3389C18.7457 27.3346 18.1323 26.666 18.1323 25.6822V25.3402H11.3988H4.66531L4.64679 26.321C4.62863 27.2845 4.625 27.3088 4.44163 27.6956C4.20834 28.1879 3.81277 28.5807 3.3101 28.8192C2.95958 28.9857 2.88031 29 2.31291 29C1.73654 29 1.67156 28.9877 1.31173 28.8106C0.841989 28.5795 0.378174 28.1084 0.157949 27.6387L-6.18398e-07 27.3018V14.5059V1.70987L0.189459 1.32527C0.420698 0.855759 0.892032 0.392162 1.36195 0.172045C1.66091 0.031976 1.76847 0.0141746 2.31414 0.0141746C2.88365 0.0141746 2.95841 0.0279941 3.32187 0.200035C3.82132 0.436548 4.2057 0.820742 4.44233 1.31994C4.62101 1.69699 4.62905 1.74606 4.64715 2.57605L4.66601 3.43977H6.03856H7.41111V3.17849C7.41111 2.0587 8.59231 1.29055 9.56736 1.77616C10.1002 2.0416 10.399 2.5483 10.399 3.18669V3.49833H10.604C10.8067 3.49833 10.8091 3.4954 10.8091 3.24548C10.8091 2.04125 12.0172 1.25278 13.0423 1.78805C13.5694 2.06327 13.8545 2.54502 13.8552 3.16163L13.8556 3.43977H19.0948H24.334L24.3529 2.57605C24.371 1.74606 24.379 1.69699 24.5577 1.31994C24.7954 0.818517 25.179 0.435845 25.6781 0.202202C26.012 0.0459712 26.1496 0.0160484 26.598 0.0022875C26.929 -0.0078429 27.2171 0.0160485 27.3721 0.0665248ZM13.9727 4.75444C13.9727 5.30189 13.8716 5.69341 13.6577 5.97366C12.9665 6.87942 11.6261 6.76922 11.1354 5.76625C11.023 5.53647 10.9759 5.32473 10.9471 4.91834L10.9087 4.37669H10.6594H10.4099L10.3888 4.94762C10.3582 5.77767 10.1198 6.17287 9.46923 6.47216C8.92953 6.72044 8.27098 6.57949 7.84242 6.12392C7.52641 5.78792 7.44931 5.57213 7.42224 4.94762L7.39747 4.37669H6.02755H4.65758V7.42166V10.4666H8.92608H13.1946L13.2249 9.98073C13.2616 9.39288 13.3885 9.11438 13.7738 8.77533C14.0362 8.54444 14.4777 8.35858 14.7636 8.35858C15.1166 8.35858 15.5296 8.54977 15.8194 8.84718C16.164 9.20081 16.2576 9.45758 16.2576 10.0489V10.4666H16.4544H16.6512L16.6819 9.97476C16.7178 9.39926 16.8902 9.01776 17.2408 8.73815C17.4739 8.55229 17.9505 8.36362 18.1949 8.36051C18.4925 8.35671 18.96 8.54134 19.1996 8.75712C19.5574 9.07959 19.7129 9.45934 19.7136 10.0128L19.7141 10.4666H19.9192H20.1242V10.0967C20.1242 9.5525 20.2552 9.17856 20.5493 8.88313C20.8969 8.53396 21.2358 8.39067 21.7061 8.39406C22.6243 8.40074 23.2293 9.06531 23.2293 10.0672V10.4666H23.8152H24.401V7.42166V4.37669H19.1869H13.9727V4.75444ZM23.1114 11.8724C23.087 12.2766 23.051 12.4225 22.9197 12.6463C22.6426 13.119 22.1719 13.3945 21.6415 13.3945C21.211 13.3945 20.9168 13.2901 20.6258 13.034C20.2834 12.7328 20.1282 12.3813 20.0839 11.8065L20.0478 11.3389L19.8663 11.3566L19.6848 11.3743L19.6525 11.872C19.6045 12.6107 19.3539 13.0115 18.7768 13.2726C18.4374 13.4262 17.8973 13.4317 17.5758 13.2849C17.0234 13.0327 16.6677 12.4049 16.6677 11.682V11.3376L16.4773 11.3559L16.2869 11.3743L16.2522 11.8803C16.2246 12.2832 16.1855 12.441 16.0605 12.6542C15.7807 13.1313 15.3129 13.3953 14.7509 13.3932C13.9021 13.39 13.3341 12.7848 13.2815 11.8277L13.255 11.3442L9.00019 11.3593L4.74545 11.3743L4.73028 14.4046L4.7151 17.4349H7.29341H9.87172L9.873 16.8933C9.87447 16.2785 9.98138 15.9618 10.2998 15.6292C10.6251 15.2894 10.8942 15.1827 11.4288 15.1815C11.8541 15.1806 11.9311 15.1984 12.1884 15.3574C12.7551 15.7076 12.9768 16.1783 12.9768 17.0317V17.4424L13.1672 17.424L13.3576 17.4057L13.3869 16.7861C13.4133 16.2256 13.433 16.1392 13.5931 15.8804C14.235 14.8434 15.6259 14.8525 16.2132 15.8976C16.3622 16.1628 16.3902 16.2849 16.4181 16.791L16.4504 17.3772L20.3818 17.3622L24.3131 17.3471L24.3284 14.4193C24.3367 12.8089 24.3307 11.4575 24.3148 11.4161C24.2933 11.3601 24.1386 11.3451 23.7136 11.3575L23.1414 11.3743L23.1114 11.8724ZM16.3026 18.7405C16.2692 19.1557 16.1539 19.4231 15.8848 19.7092C15.3334 20.2954 14.4295 20.3341 13.8032 19.7983C13.4824 19.5238 13.3196 19.1923 13.2832 18.7395L13.2536 18.3719H13.0566H12.8596L12.859 18.6793C12.8574 19.5389 12.0504 20.259 11.1885 20.1702C10.4312 20.092 9.88953 19.5231 9.8266 18.7395L9.79708 18.3719H7.22733H4.65758V21.3876V24.4033H11.3949H18.1323V24.03C18.1323 23.1586 18.5967 22.5756 19.4293 22.4019C19.8433 22.3155 20.2916 22.4401 20.6404 22.7385C21.0045 23.0499 21.1353 23.3435 21.167 23.9202L21.1935 24.4033H22.7679H24.3424V21.3876V18.3719H20.3373H16.3322L16.3026 18.7405Z" fill="#976DFF"/>
</svg>
