<svg width="25" height="25" viewBox="0 0 25 25" fill="none" xmlns="http://www.w3.org/2000/svg">
<path fill-rule="evenodd" clip-rule="evenodd" d="M7.3248 2.65874C7.3248 4.41831 7.30648 5.40498 7.27059 5.57622C7.14041 6.198 6.68886 6.7855 6.12236 7.07012C5.63345 7.31582 5.51884 7.32422 2.65895 7.32422H0V15.8711C0 24.3406 0.000876019 24.4197 0.0982959 24.6106C0.161582 24.7347 0.26531 24.8384 0.389392 24.9017C0.579495 24.9987 0.664846 25 6.68803 25H12.794L12.7948 23.9868C12.7958 22.7928 12.8482 22.4745 13.1424 21.875C13.3021 21.5495 13.4313 21.3747 13.7415 21.0646C14.3988 20.4073 15.1233 20.1198 16.1268 20.118C16.5765 20.1172 16.6029 20.1115 16.6029 20.0154C16.6029 19.9594 16.4582 18.4818 16.2815 16.7317C15.9288 13.2404 15.9152 12.8749 16.1146 12.2314C16.5148 10.9398 17.557 9.99458 18.9102 9.69575L19.0445 9.66611V5.12407C19.0445 0.668313 19.0426 0.578369 18.9462 0.389355C18.8829 0.265283 18.7792 0.161569 18.6551 0.0982881C18.4653 0.00146189 18.3784 0 12.8936 0H7.3248V2.65874ZM3.12539 3.14922L0.415418 5.85938H2.84656C5.13727 5.85938 5.28822 5.85401 5.45933 5.76675C5.56612 5.71226 5.68615 5.5936 5.7508 5.47851L5.86077 5.28291L5.84807 2.86099L5.83542 0.439113L3.12539 3.14922ZM15.7252 3.02798C15.9418 3.13852 16.1146 3.41982 16.1146 3.66211C16.1146 3.90439 15.9418 4.1857 15.7252 4.29624C15.538 4.3917 15.443 4.39453 12.4485 4.39453H9.36461L9.16982 4.28506C8.67837 4.00889 8.6734 3.34053 9.16054 3.04565L9.35133 2.93018L12.4419 2.92993C15.4433 2.92969 15.538 2.93252 15.7252 3.02798ZM15.7252 5.95766C15.9418 6.06821 16.1146 6.34951 16.1146 6.5918C16.1146 6.83408 15.9418 7.11538 15.7252 7.22593C15.538 7.32134 15.443 7.32422 12.4522 7.32422C9.46135 7.32422 9.36628 7.32134 9.17915 7.22593C8.68136 6.97198 8.67095 6.27168 9.16054 5.97534L9.35133 5.85986L12.4419 5.85962C15.4433 5.85938 15.538 5.8622 15.7252 5.95766ZM14.2602 8.88735C14.4769 8.9979 14.6496 9.2792 14.6496 9.52148C14.6496 9.76377 14.4769 10.0451 14.2602 10.1556C14.0706 10.2523 13.9829 10.2539 8.78976 10.2539C3.59662 10.2539 3.50893 10.2523 3.31931 10.1556C2.82152 9.90166 2.81111 9.20137 3.3007 8.90503L3.49149 8.78955L8.77951 8.78931C13.9832 8.78906 14.0706 8.79062 14.2602 8.88735ZM19.1157 11.1521C18.1726 11.3812 17.4375 12.275 17.4314 13.2001C17.4304 13.3388 17.5784 14.9518 17.7603 16.7847L18.0909 20.1172H19.6305H21.17L21.5006 16.7847C21.6825 14.9518 21.8305 13.3388 21.8296 13.2001C21.8287 13.0616 21.7863 12.8144 21.7354 12.6509C21.3891 11.5384 20.2375 10.8796 19.1157 11.1521ZM14.2602 11.817C14.4769 11.9276 14.6496 12.2089 14.6496 12.4512C14.6496 12.6935 14.4769 12.9748 14.2602 13.0853C14.0706 13.182 13.9829 13.1836 8.78615 13.1836H3.50477L3.30998 13.0741C2.81853 12.798 2.81355 12.1296 3.3007 11.8347L3.49149 11.7192L8.77951 11.719C13.9832 11.7188 14.0706 11.7203 14.2602 11.817ZM7.30917 14.8227C8.04077 14.9738 8.65288 15.3062 9.17655 15.837C9.91499 16.5853 10.225 17.3456 10.225 18.4082C10.225 19.0599 10.1614 19.3903 9.94181 19.8779C9.45354 20.9622 8.46986 21.754 7.31455 21.9926C4.78026 22.516 2.48687 20.2231 3.00708 17.6859C3.4117 15.7126 5.35521 14.4191 7.30917 14.8227ZM6.07758 16.2791C5.67306 16.3773 5.36429 16.5541 5.0506 16.8672C4.53845 17.3783 4.31549 18.061 4.43434 18.7542C4.51848 19.2448 4.70311 19.6025 5.0506 19.9484C5.92186 20.8157 7.27011 20.8163 8.13268 19.9498C8.99993 19.0787 9.00052 17.7331 8.13405 16.8666C7.57668 16.3093 6.83057 16.0961 6.07758 16.2791ZM15.4937 21.6523C14.995 21.8095 14.6351 22.1261 14.4104 22.6052C14.2877 22.8667 14.2828 22.9124 14.2677 23.938L14.2521 25H19.336C24.3348 25 24.4231 24.9983 24.6126 24.9017C24.7394 24.837 24.8405 24.7346 24.9078 24.6025C25.0015 24.4188 25.0089 24.3359 24.994 23.6375C24.9779 22.8887 24.9744 22.8669 24.8184 22.5504C24.6331 22.1744 24.3682 21.916 23.9824 21.7351L23.7079 21.6064L19.7037 21.5969C16.4891 21.5893 15.6589 21.6002 15.4937 21.6523Z" fill="#976DFF"/>
</svg>
