<svg width="28" height="25" viewBox="0 0 28 25" fill="none" xmlns="http://www.w3.org/2000/svg">
<path fill-rule="evenodd" clip-rule="evenodd" d="M13.5541 0.0609794C13.4453 0.102575 13.2728 0.189562 13.171 0.254272C12.8928 0.431038 10.73 2.67155 10.663 2.85239C10.514 3.25433 10.6912 3.70859 11.07 3.89563C11.5272 4.12136 11.7439 4.02225 12.5503 3.21843L13.1774 2.59344V4.59884V6.60424L9.78368 8.33433C7.91712 9.28588 6.38994 10.0773 6.38994 10.0929C6.38994 10.1085 8.10186 10.9943 10.1942 12.0613L13.9985 14.0012L17.8027 12.0613C19.8951 10.9943 21.6065 10.1087 21.6058 10.0932C21.605 10.0778 20.08 9.28627 18.2168 8.33433L14.8292 6.60351L14.8244 4.59828L14.8195 2.5931L15.4629 3.23546C15.9027 3.67464 16.1723 3.90009 16.3149 3.94811C16.8987 4.14464 17.4833 3.59882 17.3669 2.9659C17.333 2.78154 17.1614 2.58082 16.1505 1.54289C15.3813 0.753026 14.8785 0.28163 14.6988 0.181913C14.3698 -0.000771591 13.8577 -0.0548735 13.5541 0.0609794ZM5.29444 15.4949L5.29372 19.5009L3.64793 20.4688C2.74278 21.0012 1.99507 21.4283 1.98642 21.418C1.97772 21.4077 2.0678 21.0349 2.18653 20.5896C2.46306 19.5528 2.45485 19.3254 2.1296 19.016C1.92855 18.8247 1.87611 18.803 1.61622 18.8032C1.27619 18.8034 1.01729 18.9404 0.892762 19.186C0.846892 19.2765 0.622398 20.0628 0.393869 20.9332C0.0425075 22.2717 -0.0176492 22.5647 0.00386274 22.8329C0.0482002 23.386 0.42994 23.9232 0.916175 24.1168C0.991439 24.1468 1.74178 24.3603 2.58354 24.5912C4.2099 25.0375 4.33629 25.0523 4.6397 24.8319C5.07995 24.5121 5.07319 23.767 4.6273 23.4714C4.55811 23.4256 4.13245 23.2844 3.68147 23.1577C3.23043 23.031 2.85284 22.9187 2.84244 22.908C2.83204 22.8974 2.99174 22.7894 3.19728 22.668C4.41289 21.9499 6.05157 20.9885 6.15557 20.9323C6.26362 20.874 6.65505 21.0597 9.7272 22.6266L13.1774 24.3864V19.9198V15.4532L9.2912 13.471C7.15375 12.3809 5.38025 11.4889 5.35009 11.4889C5.3139 11.4889 5.29493 12.8545 5.29444 15.4949ZM18.6922 13.4741L14.8195 15.4532V19.9198V24.3864L18.2754 22.6238L21.7312 20.8611L22.9965 21.6027C24.8605 22.6952 25.175 22.8871 25.1477 22.9149C25.1341 22.9288 24.7568 23.0407 24.3093 23.1635C23.8617 23.2864 23.4389 23.4247 23.3697 23.4709C23.0298 23.6978 22.9221 24.2641 23.1534 24.6096C23.2935 24.819 23.5922 25.0006 23.7956 25C23.931 24.9996 26.8132 24.2254 27.0808 24.1175C27.5548 23.9264 27.9405 23.395 27.9948 22.8582C28.0204 22.6061 27.9611 22.3171 27.6036 20.9506C27.3719 20.0648 27.1477 19.2719 27.1055 19.1885C26.9859 18.9528 26.702 18.803 26.3743 18.803C26.122 18.803 26.067 18.8261 25.8674 19.016C25.5421 19.3254 25.5339 19.5528 25.8104 20.5896C25.9292 21.0349 26.0198 21.4072 26.0117 21.4169C26.0036 21.4266 25.256 20.9995 24.3505 20.4677L22.704 19.5009L22.7029 15.4949C22.702 12.3263 22.6875 11.4895 22.6333 11.4919C22.5957 11.4936 20.8222 12.3856 18.6922 13.4741Z" fill="#976DFF"/>
</svg>
