<svg width="26" height="26" viewBox="0 0 26 26" fill="none" xmlns="http://www.w3.org/2000/svg">
<path fill-rule="evenodd" clip-rule="evenodd" d="M9.08593 0.0438748C8.82497 0.124266 8.42376 0.418117 8.23463 0.66724C8.01046 0.962575 7.90012 1.34487 7.90012 1.82611V2.21286L6.77343 2.22716L5.64673 2.24147L5.63226 3.24258C5.62027 4.07368 5.63173 4.26493 5.69975 4.3687L5.78172 4.49371H9.59679H13.4119L13.4938 4.3687C13.5619 4.26493 13.5733 4.07368 13.5613 3.24258L13.5469 2.24147L12.4264 2.22716L11.306 2.21291L11.2845 1.72076C11.267 1.31986 11.236 1.1736 11.1175 0.931626C10.9564 0.602376 10.674 0.319654 10.3282 0.141383C10.0716 0.00900493 9.37617 -0.0455257 9.08593 0.0438748ZM9.86868 1.1851C10.0719 1.29013 10.18 1.54598 10.18 1.92181V2.21498H9.59679H9.01356V1.93141C9.01356 1.54736 9.10115 1.32378 9.29887 1.20333C9.50013 1.08064 9.65686 1.07561 9.86868 1.1851ZM0.965246 2.31535C0.589699 2.44502 0.322314 2.67115 0.145808 3.0084L0 3.28693L0.000318103 14.0519C0.000477165 21.3041 0.0185043 24.8812 0.0554599 25.0142C0.143422 25.3309 0.420774 25.646 0.767319 25.8232L1.0794 25.9827L9.43396 25.9968C15.2903 26.0067 17.8716 25.9938 18.0664 25.9534C18.4381 25.8764 18.8098 25.6173 19.0065 25.2979L19.1671 25.0372L19.1819 21.615L19.1966 18.1928L17.1936 20.1858C15.0575 22.3112 14.9799 22.3742 14.3244 22.5147C14.1634 22.5492 13.5358 22.5648 12.7167 22.5547C11.3745 22.5381 11.3727 22.5379 11.1022 22.3953C10.7402 22.2044 10.3812 21.7973 10.2693 21.4507C10.1956 21.2226 10.1802 20.952 10.1813 19.8955C10.182 19.1921 10.2067 18.5119 10.2363 18.384C10.3895 17.7199 10.2743 17.8475 14.8792 13.2369L19.1936 8.9172L19.1933 6.16227C19.1931 4.42794 19.1727 3.3342 19.1381 3.20993C19.0502 2.89346 18.7728 2.57814 18.4264 2.40098L18.1145 2.24147L16.4007 2.22552L14.6868 2.20952V3.31571C14.6868 4.56838 14.6498 4.75608 14.329 5.13064C14.2228 5.25459 14.0153 5.4122 13.8679 5.48077L13.5999 5.60552H9.59679H5.59371L5.32564 5.48077C5.17824 5.4122 4.97077 5.25459 4.86462 5.13064C4.5439 4.75624 4.50678 4.56811 4.50678 3.31841V2.21498L2.87639 2.21673C1.4374 2.21821 1.21301 2.22981 0.965246 2.31535ZM23.1669 6.79178C23.0339 6.82761 22.8549 6.90794 22.7693 6.97021C22.6835 7.03248 21.9888 7.71101 21.2253 8.47799L19.8372 9.87257L21.3313 11.4155L22.8255 12.9585L23.5544 12.2378L24.2833 11.5171L24.4548 11.6886L24.6263 11.86L22.4932 13.9944C20.3807 16.1082 20.36 16.131 20.36 16.3454C20.36 16.7568 20.75 17.0322 21.111 16.8759C21.2159 16.8304 22.2438 15.8411 23.6341 14.4474C25.9003 12.1757 25.9803 12.0887 25.9803 11.8947C25.9803 11.6202 25.9207 11.5218 25.4869 11.0798L25.1114 10.6973L25.4672 10.3288C25.8938 9.8872 25.9971 9.67024 25.9999 9.20967C26.0032 8.68435 25.8848 8.4959 25.0104 7.63486C24.3374 6.97201 24.2216 6.87986 23.9672 6.80434C23.6331 6.70519 23.4962 6.70302 23.1669 6.79178ZM14.3404 9.07348C14.5268 9.15138 14.6868 9.38572 14.6868 9.58111C14.6868 9.7765 14.5268 10.0108 14.3404 10.0887C14.0713 10.2011 5.12225 10.2011 4.85322 10.0887C4.66674 10.0108 4.50678 9.7765 4.50678 9.58111C4.50678 9.39128 4.66494 9.15255 4.84161 9.07576C5.09643 8.96495 14.0754 8.96283 14.3404 9.07348ZM15.2356 14.4698C11.7123 17.9973 11.4585 18.2636 11.376 18.5197C11.3022 18.7489 11.2903 18.9857 11.3038 19.9627L11.32 21.1316L11.4669 21.2784L11.6138 21.4252L12.7963 21.4412C13.8796 21.4558 14.003 21.4482 14.2666 21.3493C14.531 21.25 14.856 20.9396 18.2888 17.5078L22.0233 13.7742L21.7904 13.5192C21.3473 13.0339 19.0669 10.694 19.037 10.694C19.0205 10.694 17.3099 12.3931 15.2356 14.4698ZM13.262 11.3599C13.484 11.4746 13.5981 11.757 13.5191 11.996C13.4864 12.0951 13.3985 12.2242 13.3238 12.2829C13.1902 12.388 13.1183 12.3898 9.06192 12.3898C6.13468 12.3898 4.89813 12.3726 4.80587 12.3305C4.4001 12.1457 4.44793 11.4714 4.87793 11.3143C4.92167 11.2984 6.78986 11.2834 9.02947 11.2811C12.6275 11.2774 13.1201 11.2866 13.262 11.3599ZM10.9944 13.6149C11.3154 13.761 11.3753 14.2584 11.1028 14.5143L10.9668 14.642H7.90012H4.83344L4.69744 14.5143C4.4317 14.2648 4.48335 13.7665 4.79039 13.618C4.95539 13.5382 10.8195 13.5352 10.9944 13.6149ZM8.66368 15.8553C8.89172 15.9505 9.01356 16.1277 9.01356 16.3643C9.01356 16.6009 8.89172 16.7781 8.66368 16.8734C8.4035 16.982 5.11392 16.9808 4.85322 16.8719C4.66674 16.794 4.50678 16.5597 4.50678 16.3643C4.50678 16.1745 4.66494 15.9357 4.84161 15.859C5.08874 15.7515 8.40758 15.7483 8.66368 15.8553Z" fill="#976DFF"/>
</svg>
