<svg width="25" height="27" viewBox="0 0 25 27" fill="none" xmlns="http://www.w3.org/2000/svg">
<path fill-rule="evenodd" clip-rule="evenodd" d="M6.5585 0.0680847C6.39079 0.15437 6.30179 0.248044 6.20226 0.443101C6.13141 0.582034 6.12937 0.629408 6.12937 2.13292V3.67979L5.98836 3.69937C5.80261 3.72515 5.59844 3.86893 5.48028 4.05717C5.39741 4.18918 5.38484 4.24505 5.38484 4.48103C5.38484 4.72644 5.39478 4.76643 5.48717 4.89345C5.61343 5.06696 5.68694 5.12419 5.88662 5.20438C6.03317 5.26327 6.41049 5.26711 12.0067 5.26714L17.9706 5.26718L18.1572 5.18172C18.355 5.09113 18.4821 4.94951 18.5752 4.7159C18.6348 4.56628 18.6494 4.31524 18.6003 4.28382C18.5838 4.27321 18.5615 4.21981 18.5509 4.16515C18.5126 3.96877 18.2478 3.74283 18.0096 3.70338L17.8687 3.68004L17.8682 2.18736C17.8677 0.953787 17.8586 0.667853 17.8157 0.540182C17.7415 0.319447 17.6679 0.216413 17.5074 0.108251L17.3665 0.0132865L12.0336 0.0041056C6.72638 -0.0050394 6.70006 -0.00471662 6.5585 0.0680847ZM6.42372 6.86185C6.40467 6.86795 6.29559 6.89266 6.18131 6.91672C5.79793 6.99756 5.49091 7.10597 5.17707 7.27126C5.00565 7.36156 4.85761 7.44387 4.84809 7.4542C4.83856 7.46449 4.76072 7.5213 4.67508 7.58043C4.45168 7.73464 3.91905 8.29632 3.75699 8.54862C3.68094 8.66697 3.61034 8.77186 3.60005 8.78173C3.56213 8.81809 3.33257 9.34323 3.27869 9.51691C3.13775 9.97112 3.11663 10.0584 3.11663 10.1868V10.3238H12.0033H20.8901L20.8663 10.2073C20.8533 10.1431 20.827 9.99389 20.808 9.87554C20.7891 9.75719 20.7588 9.64505 20.7409 9.62629C20.7229 9.60757 20.7083 9.56967 20.7083 9.54205C20.7083 9.51447 20.686 9.44103 20.6588 9.37888C20.6316 9.31673 20.5752 9.18518 20.5334 9.08656C20.4917 8.98794 20.4127 8.83785 20.3578 8.75304C20.303 8.66822 20.2581 8.58348 20.2581 8.56476C20.2581 8.546 20.2446 8.53069 20.2281 8.53069C20.2115 8.53069 20.157 8.46649 20.1069 8.38803C19.9819 8.1925 19.7327 7.93798 19.2986 7.56268C19.2756 7.54281 19.249 7.52653 19.2395 7.52653C19.23 7.52653 19.1631 7.48454 19.0909 7.43318C18.919 7.31107 18.404 7.06032 18.3251 7.06032C18.2912 7.06032 18.2486 7.04547 18.2305 7.02736C18.2005 6.99727 18.0585 6.96248 17.6263 6.87939C17.4862 6.85246 6.50693 6.83528 6.42372 6.86185ZM5.5753 11.9376C5.5753 11.9574 5.58849 11.9735 5.60463 11.9735C5.62077 11.9735 5.66651 12.0018 5.7063 12.0363C5.74609 12.0708 5.87692 12.1797 5.99701 12.2783C6.50828 12.6982 7.04642 13.4454 7.2883 14.0715C7.48386 14.5775 7.53119 14.76 7.61957 15.3478C7.6767 15.7277 7.64498 24.5328 7.58576 24.7406C7.56048 24.8294 7.50993 25.015 7.4734 25.1531C7.4369 25.2911 7.39223 25.4321 7.37418 25.4664C7.35614 25.5006 7.34139 25.5476 7.34139 25.5707C7.34139 25.6257 7.08939 26.1537 7.0557 26.1692C7.04143 26.1758 7.02973 26.2001 7.02973 26.2232C7.02973 26.2603 6.67211 26.8102 6.61788 26.8565C6.60631 26.8664 6.57546 26.9027 6.54935 26.9372C6.50412 26.997 6.73243 27 11.2402 27H15.9786L15.701 26.7187C15.5483 26.5639 15.362 26.3582 15.2869 26.2614C15.2117 26.1647 15.1299 26.0634 15.1051 26.0362C14.9614 25.879 14.5756 25.23 14.4203 24.8841C14.3716 24.7756 14.3095 24.644 14.2822 24.5917C14.2549 24.5393 14.2326 24.4772 14.2326 24.4536C14.2326 24.4301 14.2111 24.3599 14.1849 24.2978C13.9339 23.7035 13.7855 22.8486 13.7855 21.9971C13.7855 21.0186 13.9905 20.0285 14.3517 19.2628C14.4004 19.1593 14.4404 19.0648 14.4404 19.0526C14.4404 18.9827 14.9577 18.1501 15.1618 17.8914C15.3249 17.6847 15.9743 17.0081 16.1545 16.8572C16.7186 16.3846 17.537 15.9324 18.2323 15.7091C18.9646 15.4739 19.5104 15.4014 20.3706 15.425L20.916 15.44V13.6709V11.9018H13.2457C8.15518 11.9018 5.5753 11.9138 5.5753 11.9376ZM2.57988 12.8004C2.21336 12.877 2.09521 12.9094 2.06359 12.9421C2.04472 12.9617 2.00514 12.9777 1.9756 12.9778C1.8153 12.9783 1.15824 13.4196 0.883045 13.7115C0.732685 13.871 0.519438 14.1458 0.519438 14.1799C0.519438 14.1961 0.497207 14.2348 0.469988 14.2659C0.408764 14.336 0.207775 14.7517 0.207775 14.8082C0.207775 14.831 0.185928 14.9005 0.159264 14.9626C0.132565 15.0248 0.0848775 15.229 0.0533303 15.4163C0.00419149 15.7078 -0.0025654 15.9978 0.00661134 17.4246L0.0173146 19.0923L3.07334 19.1014L6.12937 19.1106V17.3759C6.12937 15.7227 6.12168 15.5579 6.02472 15.1294C5.82976 14.268 5.13537 13.4087 4.34596 13.052C4.25073 13.009 4.14165 12.9584 4.10356 12.9396C4.03835 12.9074 3.89651 12.8724 3.53218 12.7984C3.34161 12.7597 2.76899 12.7609 2.57988 12.8004ZM12.3883 14.6743C12.4691 14.7277 12.5782 14.8398 12.6307 14.9235C12.7223 15.0694 12.7267 15.0973 12.7374 15.6046L12.7485 16.1336H13.2073C13.6392 16.1336 13.6771 16.1394 13.8539 16.2322C14.1034 16.3632 14.2384 16.5627 14.26 16.8323C14.2761 17.0339 14.2141 17.3529 14.1588 17.3529C14.1423 17.3529 14.1281 17.3731 14.1274 17.3978C14.1266 17.4224 14.0526 17.4991 13.9629 17.5681L13.7997 17.6936L13.2803 17.7115L12.7609 17.7295L12.7435 18.2495C12.7291 18.6832 12.7147 18.7899 12.657 18.8927C12.5822 19.0257 12.4806 19.1461 12.4433 19.1461C12.4305 19.1461 12.3899 19.1743 12.3531 19.2088C12.3008 19.2578 12.2241 19.2716 12.004 19.2716C11.7475 19.2716 11.708 19.2618 11.567 19.1632C11.4608 19.089 11.382 18.993 11.3165 18.8584C11.2269 18.6739 11.221 18.6331 11.2205 18.19L11.2199 17.7181L10.7091 17.7059C10.2063 17.6938 10.1959 17.6919 10.0427 17.5848C9.53626 17.2307 9.60909 16.4631 10.1736 16.2045C10.3016 16.1459 10.4054 16.1336 10.7741 16.1336H11.2199V15.6719C11.2199 15.1615 11.2667 14.9841 11.4528 14.7893C11.6963 14.5345 12.1013 14.4847 12.3883 14.6743ZM19.5309 17.0167C19.2758 17.0499 18.6843 17.2073 18.44 17.307C18.3112 17.3596 17.9139 17.556 17.7012 17.6723C17.5778 17.7398 17.1991 18.0136 17.062 18.1345C16.8273 18.3415 16.2757 18.9421 16.2757 18.9908C16.2757 19.0015 16.229 19.0714 16.1718 19.1461C16.1147 19.2208 16.0679 19.2945 16.0679 19.3098C16.0679 19.3251 16.0459 19.3631 16.019 19.3943C15.956 19.4671 15.722 19.9399 15.7218 19.9948C15.7217 20.0178 15.7095 20.042 15.6946 20.0486C15.6558 20.0658 15.449 20.7419 15.4112 20.9751C15.3937 21.0835 15.3629 21.2592 15.3427 21.3655C15.2888 21.6499 15.2978 22.3804 15.3597 22.7503C15.4331 23.1888 15.6384 23.9194 15.6957 23.9457C15.71 23.9523 15.7217 23.9765 15.7218 23.9995C15.7222 24.0954 16.177 24.92 16.2295 24.92C16.2594 24.92 22.9592 17.9685 22.9583 17.9384C22.9573 17.9072 22.6426 17.6757 22.6011 17.6757C22.5878 17.6757 22.5187 17.6389 22.4477 17.594C22.333 17.5214 22.1782 17.4469 21.8337 17.2983C21.713 17.2462 21.4433 17.1639 21.1238 17.0814C20.9024 17.0244 19.8125 16.9801 19.5309 17.0167ZM20.6996 22.5552C18.8569 24.464 17.3492 26.0405 17.3492 26.0587C17.3492 26.1288 17.9345 26.4735 18.4054 26.681C18.5235 26.733 18.7732 26.8109 19.098 26.8972C19.3755 26.9709 19.4914 26.9801 20.1542 26.9809C20.9226 26.9818 20.9872 26.9734 21.574 26.7951C22.0805 26.6412 22.8397 26.2206 23.2173 25.8846C23.5563 25.583 23.8584 25.2449 24.0921 24.9058C24.1342 24.8445 24.1817 24.7783 24.1976 24.7586C24.2136 24.7389 24.2647 24.6501 24.3114 24.5613C24.3581 24.4726 24.408 24.3946 24.4222 24.388C24.4365 24.3814 24.4483 24.3572 24.4484 24.3342C24.4486 24.3112 24.4735 24.2439 24.5039 24.1848C24.5984 24.0007 24.7674 23.5484 24.8187 23.342C24.9129 22.963 25 22.3173 25 21.9971C25 21.5357 24.8626 20.702 24.7391 20.4138C24.7124 20.3516 24.6906 20.2831 24.6906 20.2616C24.6906 20.1854 24.2641 19.3202 24.1798 19.2255C24.156 19.1987 24.1366 19.1635 24.1366 19.1474C24.1366 19.1311 24.1171 19.1104 24.0933 19.1013C24.0694 19.0923 22.5446 20.6441 20.6996 22.5552ZM0.000101453 22.3827C0.00020534 23.9038 0.00695986 24.112 0.0660373 24.4179C0.144957 24.8266 0.181494 24.9432 0.318798 25.2248C0.541464 25.6814 0.855583 26.078 1.23837 26.3859C1.44698 26.5537 1.91087 26.7948 2.21627 26.8941C2.44645 26.9689 2.54296 26.9786 3.06468 26.9786C3.74016 26.9786 3.94527 26.9313 4.45813 26.6571C4.80612 26.4711 4.97113 26.3425 5.26364 26.0292C5.52668 25.7475 5.52665 25.7475 5.67078 25.5035C5.8709 25.1647 5.97035 24.9013 6.06052 24.4717C6.12248 24.1765 6.12833 24.0008 6.12881 22.4185L6.12937 20.6882H3.06468H0L0.000101453 22.3827Z" fill="#976DFF"/>
</svg>
