<svg width="28" height="31" viewBox="0 0 28 31" fill="none" xmlns="http://www.w3.org/2000/svg">
<path fill-rule="evenodd" clip-rule="evenodd" d="M13.3807 0.0773131C12.6147 0.269374 11.964 0.811943 11.6078 1.55566C11.39 2.01059 11.3876 2.02355 11.3876 2.74867C11.3876 3.47379 11.39 3.48675 11.6078 3.94168C12.1578 5.09017 13.4059 5.71953 14.5797 5.44025C15.3352 5.26055 16.0361 4.68249 16.387 3.94991C16.5723 3.56295 16.607 3.42412 16.6296 2.9798C16.6775 2.03887 16.4179 1.33198 15.8119 0.753011C15.1349 0.106265 14.2482 -0.140187 13.3807 0.0773131ZM8.80509 7.11914C7.40269 8.01306 6.87069 8.38259 6.87709 8.45848C6.88191 8.51608 6.93069 8.76762 6.98545 9.01747C7.06028 9.35871 7.07794 9.64507 7.05658 10.1683C7.04091 10.5514 7.01104 10.9073 6.99021 10.9592C6.9601 11.0343 7.30759 11.2263 8.69191 11.8994L10.4314 12.7453L10.8802 12.2846C11.3932 11.7577 11.9444 11.4005 12.6201 11.1566C13.0563 10.9993 13.1543 10.9872 13.9994 10.9872C14.8445 10.9872 14.9424 10.9993 15.3786 11.1566C16.0548 11.4006 16.6055 11.7578 17.1198 12.2858L17.5697 12.7479L19.3084 11.9017C20.7012 11.2239 21.0395 11.0366 21.0089 10.9602C20.9878 10.9077 20.9578 10.5514 20.9421 10.1683C20.9208 9.64507 20.9384 9.35871 21.0133 9.01747C21.068 8.76762 21.1168 8.5153 21.1216 8.45679C21.1281 8.37883 20.6136 8.02094 19.1967 7.11775L17.2628 5.88507L16.8983 6.19451C16.1379 6.83986 15.4383 7.15863 14.5193 7.27831C13.2961 7.43767 12.124 7.06554 11.1043 6.19427L10.7419 5.88458L8.80509 7.11914ZM1.99969 7.29769C1.17718 7.50296 0.472419 8.16933 0.148731 9.04775C-0.0398479 9.55955 -0.039459 10.3552 0.149648 10.8644C0.33089 11.3525 0.444988 11.5357 0.795264 11.9014C2.45039 13.6291 5.31289 12.3967 5.31289 9.95627C5.31289 8.1577 3.70934 6.87099 1.99969 7.29769ZM24.6969 7.29382C23.4829 7.63118 22.6858 8.6864 22.6858 9.95627C22.6858 12.0425 24.8502 13.3662 26.6284 12.3674C27.5385 11.8562 28.1363 10.6109 27.9732 9.56573C27.7223 7.95789 26.1731 6.88353 24.6969 7.29382ZM5.84112 13.1162C5.26165 13.7297 4.38679 14.2599 3.75092 14.383L3.55212 14.4215V15.4983V16.575L3.77216 16.6176C4.38784 16.7368 5.15648 17.199 5.76394 17.8153L6.18565 18.2433L7.90822 17.4136L9.63076 16.5839L9.62879 15.6625C9.62767 15.1558 9.63999 14.6633 9.65613 14.568C9.68541 14.3951 9.683 14.3937 7.96537 13.5535C7.0193 13.0907 6.24016 12.7121 6.23394 12.7122C6.22772 12.7122 6.05095 12.894 5.84112 13.1162ZM20.0153 13.5577C18.3153 14.3929 18.3133 14.3942 18.3426 14.5676C18.3587 14.663 18.3719 15.0818 18.3719 15.4983C18.3719 15.9147 18.3587 16.3334 18.3426 16.4289C18.3133 16.6023 18.3143 16.6029 20.0395 17.445L21.7656 18.2875L22.1403 17.8893C22.7118 17.2818 23.6037 16.7382 24.2266 16.6176L24.4466 16.575V15.4983V14.4215L24.2372 14.3809C23.6237 14.2622 22.7221 13.7138 22.1576 13.1162C21.9478 12.894 21.7629 12.7143 21.7468 12.7168C21.7306 12.7194 20.9515 13.0978 20.0153 13.5577ZM13.2657 12.8577C12.5097 13.1055 11.9356 13.6175 11.5996 14.3435C11.394 14.7877 11.3876 14.823 11.3876 15.4983C11.3876 16.1601 11.3972 16.2157 11.5805 16.6153C11.8289 17.1567 12.0947 17.4874 12.5096 17.7716C13.8777 18.7087 15.7045 18.1956 16.4069 16.6768C17.0915 15.1965 16.3348 13.3713 14.8386 12.8945C14.3974 12.7538 13.6369 12.7361 13.2657 12.8577ZM8.6877 19.0414C7.15014 19.7791 6.98708 19.8712 7.00064 19.9948C7.08257 20.743 7.07631 21.5644 6.98545 21.979C6.93069 22.2289 6.88191 22.4804 6.87709 22.538C6.87069 22.6139 7.40263 22.9834 8.80509 23.8772L10.7419 25.1116L11.0354 24.8573C11.6478 24.3266 12.1959 24.0173 12.8137 23.8539L13.119 23.7732V21.8863V19.9995L12.6348 19.8355C11.9569 19.606 11.4054 19.2512 10.8669 18.6982C10.6128 18.4373 10.4015 18.2241 10.3973 18.2243C10.3932 18.2246 9.62385 18.5923 8.6877 19.0414ZM17.1101 18.7108C16.5967 19.249 16.0431 19.6056 15.364 19.8355L14.8797 19.9995V21.891V23.7826L15.0995 23.8252C15.6415 23.9301 16.3516 24.3241 16.9633 24.8594L17.2568 25.1162L19.1936 23.8812C20.6127 22.9763 21.1281 22.6177 21.1216 22.5397C21.1168 22.4812 21.068 22.2289 21.0133 21.979C20.9384 21.6378 20.9208 21.3514 20.9421 20.8282C20.9578 20.4451 20.9877 20.0892 21.0085 20.0372C21.0387 19.9619 20.7077 19.7777 19.3864 19.1346C18.4734 18.6902 17.6867 18.3092 17.6383 18.288C17.5788 18.2619 17.4075 18.399 17.1101 18.7108ZM1.97358 18.3803C1.52065 18.5059 1.13633 18.7391 0.795264 19.0951C0.446925 19.4588 0.327205 19.65 0.165037 20.1018C-0.189406 21.0893 0.0347928 22.1538 0.763224 22.9419C2.40086 24.7136 5.31289 23.4964 5.31289 21.0402C5.31289 19.2356 3.65371 17.9139 1.97358 18.3803ZM24.7107 18.3704C23.5051 18.6817 22.6858 19.7619 22.6858 21.0402C22.6858 23.4897 25.5965 24.7151 27.2263 22.9518C27.964 22.1537 28.1893 21.0983 27.8346 20.1014C27.6832 19.6759 27.4705 19.356 27.1033 19.0017C26.4643 18.3852 25.5689 18.1489 24.7107 18.3704ZM13.3693 25.5854C12.1553 25.9227 11.3582 26.978 11.3582 28.2478C11.3582 29.0269 11.6398 29.7193 12.1611 30.2226C12.5337 30.5822 12.8915 30.794 13.3221 30.9097C15.1646 31.4048 16.927 29.7904 16.6406 27.8698C16.4011 26.2637 14.8431 25.1758 13.3693 25.5854Z" fill="#976DFF"/>
</svg>
