<svg width="50" height="47" viewBox="0 0 50 47" fill="none" xmlns="http://www.w3.org/2000/svg">
<path fill-rule="evenodd" clip-rule="evenodd" d="M11.1884 0.0559526C10.4899 0.156732 8.90495 0.521931 8.90495 0.582031C8.90495 0.619134 10.5906 2.23713 12.6509 4.1776C17.0536 8.32429 17.0056 8.26072 17.0056 9.95445C17.0056 11.4943 16.821 11.8011 14.6879 13.8063C12.5548 15.8113 12.2284 15.9849 10.5903 15.9849C8.78763 15.9849 8.85874 16.0323 4.42317 11.8711C2.34691 9.92328 0.623696 8.3525 0.593903 8.38061C0.564002 8.40872 0.434935 8.82032 0.307064 9.2953C-0.0237031 10.5241 -0.103187 12.9839 0.147009 14.2473C1.54684 21.3175 8.79861 25.7282 16.1777 23.9977L17.0895 23.7838L28.9539 34.9168C41.7472 46.9213 41.2215 46.4678 42.78 46.8494C43.6138 47.0535 45.0257 47.0496 45.773 46.8411C47.7826 46.2803 49.2343 44.9156 49.8309 43.0266C50.0528 42.3241 50.0569 40.9969 49.8398 40.2131C49.4339 38.7481 49.9167 39.2426 37.1407 27.2117L25.2921 16.0543L25.5267 15.1752C26.2773 12.362 25.9668 9.4942 24.6293 6.88813C22.7897 3.3035 19.3137 0.826417 15.1696 0.147125C14.2935 0.00351851 11.9274 -0.0506532 11.1884 0.0559526ZM43.1109 0.103276C42.8767 0.154893 42.3629 0.342552 41.9692 0.520296C41.3193 0.813743 40.6912 1.36997 35.1641 6.54756L29.075 12.2515L33.0165 15.9577L36.958 19.664L42.8343 14.1448C46.0662 11.1093 48.8845 8.38092 49.0974 8.08185C49.6857 7.25507 49.9261 6.52283 49.9821 5.38614C50.0219 4.58144 49.9885 4.26366 49.805 3.69537C49.2569 1.99969 47.8176 0.663187 45.9905 0.153666C45.3447 -0.0265315 43.8205 -0.0531063 43.1109 0.103276ZM8.44273 31.6488L3.90386 35.9163L1.94829 41.4288C0.872805 44.4608 0.00728603 46.9551 0.0249009 46.9717C0.0426244 46.9884 2.69659 46.1748 5.92272 45.1637L11.7882 43.3255L16.3536 39.033L20.9189 34.7407L17.0056 31.061C14.8533 29.0372 13.0674 27.3814 13.0369 27.3814C13.0064 27.3814 10.939 29.3017 8.44273 31.6488Z" fill="#976DFF"/>
</svg>
